<?xml version="1.0" encoding="UTF-8"?>
<svg version="1.1" xmlns="http://www.w3.org/2000/svg" width="320" height="320">
<path d="M0 0 C-1.39621098 3.15071802 -3.03067243 5.27972386 -5.463274 7.70936966 C-6.18483559 8.43491334 -6.90639717 9.16045702 -7.64982426 9.90798688 C-8.84338876 11.09281285 -8.84338876 11.09281285 -10.06106567 12.30157471 C-10.90398631 13.14620419 -11.74690695 13.99083368 -12.61537063 14.861058 C-14.95598457 17.20439866 -17.30100769 19.54316337 -19.64798713 21.88011837 C-22.17783563 24.40133632 -24.70190828 26.9283249 -27.22668457 29.45462036 C-31.60179884 33.83078373 -35.98056238 38.20326803 -40.36182022 42.57328033 C-46.69638991 48.89160139 -53.02543493 55.21543269 -59.35314177 61.5406259 C-69.61937819 71.80248421 -79.89007372 82.05986752 -90.16357422 92.31445312 C-100.14378037 102.27630346 -110.12188544 112.24025056 -120.09716797 122.20703125 C-120.71196361 122.82130145 -121.32675925 123.43557164 -121.96018507 124.06845608 C-125.04439686 127.15005782 -128.12856734 130.23170088 -131.21271729 133.31336451 C-156.80207731 158.88198844 -182.3986746 184.44335704 -208 210 C-211.54065273 208.32913464 -213.88774398 206.38731025 -216.69262695 203.62963867 C-217.61650711 202.7249736 -218.54038727 201.82030853 -219.49226379 200.88822937 C-220.49148725 199.89869855 -221.49014652 198.90859775 -222.48828125 197.91796875 C-223.51628835 196.90147102 -224.54429845 195.88497631 -225.5723114 194.8684845 C-227.72209014 192.73967841 -229.8672043 190.60628246 -232.01000977 188.47045898 C-234.75853734 185.73293326 -237.52514215 183.01446948 -240.29641438 180.29999828 C-242.42452483 178.20909187 -244.53914203 176.10493157 -246.65025902 173.99688148 C-247.66482729 172.9883716 -248.68440185 171.98487249 -249.70897865 170.98653221 C-251.13812271 169.59142396 -252.54677632 168.17541761 -253.9543457 166.75854492 C-254.76168655 165.95849533 -255.5690274 165.15844574 -256.40083313 164.33415222 C-258 162 -258 162 -257.93792725 159.76421547 C-256.64205779 155.9450894 -254.25255006 153.37738267 -251.59233093 150.43840027 C-250.73520759 149.4703155 -250.73520759 149.4703155 -249.86076862 148.48267347 C-247.93809084 146.3189248 -246.00040115 144.16928095 -244.0612793 142.02026367 C-242.67649049 140.47285047 -241.29181937 138.92533195 -239.90725708 137.37771606 C-227.07498309 123.08786999 -213.92451252 109.09394265 -200.68831158 95.17856884 C-191.82587911 85.84978798 -183.0789194 76.45332819 -174.56665039 66.80297852 C-121.11112382 6.34744623 -80.94685836 -13.199651 0 0 Z " fill="#5EC8F8" transform="translate(289,0)"/>
<path d="M0 0 C-0.58268375 3.48055431 -1.74433383 5.10964339 -4.24002075 7.56713867 C-4.93280121 8.25681732 -5.62558167 8.94649597 -6.33935547 9.65707397 C-7.1040918 10.40316925 -7.86882812 11.14926453 -8.65673828 11.91796875 C-9.45828339 12.71192047 -10.25982849 13.50587219 -11.08566284 14.32388306 C-12.82800098 16.04809828 -14.573713 17.76890923 -16.32236099 19.48672485 C-19.08550881 22.20243542 -21.83840843 24.92814828 -24.58859253 27.65698242 C-31.91519371 34.92333334 -39.25664001 42.17459526 -46.60718811 49.41671848 C-51.90089527 54.6324504 -57.18315987 59.85935917 -62.4548912 65.09732056 C-64.28188286 66.9074839 -66.11367545 68.7128145 -67.95022964 70.51327515 C-70.51214757 73.02505368 -73.05858142 75.55159331 -75.60205078 78.08203125 C-76.37083557 78.82812653 -77.13962036 79.5742218 -77.93170166 80.34292603 C-78.61884247 81.03260468 -79.30598328 81.72228333 -80.01394653 82.43286133 C-80.61826571 83.02867508 -81.22258488 83.62448883 -81.84521675 84.23835754 C-83.22145257 85.94407499 -83.22145257 85.94407499 -82.82725334 88.10185242 C-81.58935048 90.94224266 -79.45647642 92.15764268 -77 94 C-75.31237149 95.6454378 -73.6459651 97.31288577 -72 99 C-70.7315625 100.2375 -70.7315625 100.2375 -69.4375 101.5 C-67.10551057 103.89178403 -65.08484529 106.39394339 -63 109 C-60.60312046 111.51979644 -58.21594333 113.82724533 -55.5 116 C-51.06118344 119.55105325 -47.5364545 123.57943187 -44 128 C-42.3545622 129.68762851 -40.68711423 131.3540349 -39 133 C-38.175 133.845625 -37.35 134.69125 -36.5 135.5625 C-34.07236296 138.00896893 -34.07236296 138.00896893 -31.5 140 C-26.71090196 143.83127843 -22.91277586 148.30466896 -19 153 C-17.3540349 154.68711423 -15.68762851 156.3545622 -14 158 C-13.175 158.845625 -12.35 159.69125 -11.5 160.5625 C-9.07084467 163.02015888 -9.07084467 163.02015888 -6.4375 165 C-3.85415665 167.11966634 -1.93316435 169.27925017 0 172 C0 172.66 0 173.32 0 174 C-12.42883737 174.82205603 -24.85094996 175.43800922 -37.3017168 175.81342602 C-43.08943068 175.99395723 -48.85821745 176.23684156 -54.63500977 176.64038086 C-95.50222834 179.42109072 -95.50222834 179.42109072 -110.89599609 166.22900391 C-118.70660585 159.09892429 -125.60020761 151.11417416 -132.0476532 142.74580383 C-134.49194328 139.57947839 -137.10142513 136.76616611 -140 134 C-155.33333333 118.66666667 -170.66666667 103.33333333 -186 88 C-185.14500412 87.01474838 -184.29000824 86.02949677 -183.40910339 85.01438904 C-180.59618693 81.73317817 -177.89374027 78.37846458 -175.21352291 74.98861599 C-165.67943833 62.9633272 -155.66076529 51.39274027 -145.3125 40.0625 C-144.44352711 39.11017109 -143.57455421 38.15784218 -142.67924881 37.17665482 C-100.54548921 -8.50721344 -58.77162734 -9.9689982 0 0 Z " fill="#5AC7F7" transform="translate(289,146)"/>
<path d="M0 0 C5.89388157 4.9427076 11.18384937 9.97981171 16 16 C18.39687954 18.51979644 20.78405667 20.82724533 23.5 23 C27.93881656 26.55105325 31.4635455 30.57943187 35 35 C36.6454378 36.68762851 38.31288577 38.3540349 40 40 C40.825 40.845625 41.65 41.69125 42.5 42.5625 C44.92763704 45.00896893 44.92763704 45.00896893 47.5 47 C51.93881656 50.55105325 55.4635455 54.57943187 59 59 C61.39687954 61.51979644 63.78405667 63.82724533 66.5 66 C70.93881656 69.55105325 74.4635455 73.57943187 78 78 C78.86625 78.845625 79.7325 79.69125 80.625 80.5625 C82.75204167 82.74551645 83.75377872 84.29604281 85 87 C69.0940418 88.08414329 53.18757451 88.82840567 37.25 89.25 C36.09309158 89.28081665 34.93618317 89.3116333 33.74421692 89.34338379 C-16.36173347 90.52530858 -16.36173347 90.52530858 -32.40948486 76.59429932 C-39.98914426 69.09798784 -46.09468984 60.43693552 -51 51 C-46.01118458 44.98046298 -40.61037573 39.46516627 -35.078125 33.9453125 C-34.12727529 32.99378782 -33.17657395 32.04211485 -32.22601318 31.09030151 C-30.24750832 29.11033233 -28.26723104 27.13215832 -26.28564453 25.15527344 C-23.74459106 22.61995574 -21.2081065 20.08012156 -18.67290115 17.5389576 C-16.71707326 15.57952303 -14.75887856 13.6224678 -12.79994965 11.66613388 C-11.40819013 10.27536512 -10.01844327 8.88258323 -8.62872314 7.48977661 C-7.78734802 6.65155365 -6.9459729 5.81333069 -6.07910156 4.94970703 C-5.33774963 4.2091507 -4.59639771 3.46859436 -3.83258057 2.70559692 C-2 1 -2 1 0 0 Z " fill="#06599C" transform="translate(204,233)"/>
<path d="M0 0 C3.6024278 1.52525904 5.8987601 3.65650652 8.64501953 6.41796875 C9.55921661 7.33231689 10.4734137 8.24666504 11.41531372 9.1887207 C12.40458624 10.18820864 13.39374991 11.18780433 14.3828125 12.1875 C15.40319764 13.21161825 16.42402745 14.23529363 17.44528198 15.25854492 C20.12861418 17.94950031 22.80588824 20.64640512 25.48193359 23.34460449 C28.20699265 26.09011162 30.93770758 28.82998027 33.66796875 31.5703125 C38.46315662 36.38463374 43.25337025 41.20384845 48.04006958 46.02661133 C49.3577595 47.35334943 50.67777825 48.67777825 52 50 C51.54069092 50.38825455 51.08138184 50.77650909 50.6081543 51.17652893 C44.73681591 56.21819995 39.26711827 61.60391958 33.8125 67.08984375 C32.86008388 68.04412993 31.90744305 68.99819188 30.95458984 69.95204163 C28.47333075 72.4370797 25.99509209 74.92510796 23.51751709 77.41381836 C20.97837515 79.96327496 18.43632354 82.50982688 15.89453125 85.05664062 C10.92687118 90.03495631 5.96240314 95.01644371 1 100 C-15.66666667 83.33333333 -32.33333333 66.66666667 -49 50 C-43.99744121 43.95734086 -38.56822676 38.43901957 -33.0078125 32.91015625 C-32.05209752 31.95631046 -31.09660612 31.00224059 -30.1413269 30.04795837 C-27.64805084 27.55846806 -25.15178475 25.07199776 -22.65484619 22.58618164 C-20.09878491 20.04042006 -17.54561495 17.49176223 -14.9921875 14.94335938 C-9.99758981 9.95942931 -4.99982201 4.97868952 0 0 Z " fill="#31B8F5" transform="translate(152,184)"/>
</svg>
