<?xml version="1.0" encoding="UTF-8"?>
<svg version="1.1" xmlns="http://www.w3.org/2000/svg" width="287" height="175">
<path d="M0 0 C94.71 0 189.42 0 287 0 C287 57.75 287 115.5 287 175 C192.29 175 97.58 175 0 175 C0 117.25 0 59.5 0 0 Z " fill="#FEFEFE" transform="translate(0,0)"/>
<path d="M0 0 C7.03168363 5.42894151 13.32223633 11.5843868 19.51611328 17.93286133 C27.86897798 26.46519792 35.94327829 33.80679386 47.96484375 36.2890625 C48.80273438 36.46953125 49.640625 36.65 50.50390625 36.8359375 C61.00434987 38.76935252 71.3808488 36.00921075 80.21484375 30.1015625 C85.25478928 26.30094784 89.65142345 21.88379282 93.96484375 17.2890625 C94.96484375 19.2890625 94.96484375 19.2890625 94.1796875 22.16015625 C89.69762137 34.67430418 84.48060492 44.75697927 74.96484375 54.2890625 C74.32675781 54.93875 73.68867188 55.5884375 73.03125 56.2578125 C59.25199907 69.32088614 39.45192916 73.0085569 21.11669922 72.74658203 C13.77817621 72.49670178 6.9772145 71.53340643 -0.03515625 69.2890625 C-1.05609375 68.99902344 -2.07703125 68.70898438 -3.12890625 68.41015625 C-18.44897302 63.78705529 -29.45983619 54.00053954 -40.47265625 42.7890625 C-49.78801959 33.3467315 -58.07470893 26.16406111 -71.03515625 22.2890625 C-72.02515625 21.9590625 -73.01515625 21.6290625 -74.03515625 21.2890625 C-87.4853284 20.22451311 -98.086649 23.81296318 -108.5234375 32.31640625 C-112.16126643 35.51364706 -115.62626574 38.84959898 -119.03515625 42.2890625 C-115.48738122 24.84583525 -106.01771935 8.83955134 -91.76171875 -1.9296875 C-83.1900325 -7.52952837 -74.00728221 -10.67251763 -64.03515625 -12.7109375 C-63.2875 -12.89527344 -62.53984375 -13.07960938 -61.76953125 -13.26953125 C-40.70775936 -16.669503 -17.44641044 -12.24229064 0 0 Z " fill="#38BDF8" transform="translate(191.03515625,13.7109375)"/>
<path d="M0 0 C1.08152344 0.35191406 2.16304688 0.70382813 3.27734375 1.06640625 C17.71844993 6.17218825 28.15614687 15.0042001 38.7199707 25.81225586 C50.29759543 37.61873465 61.18107851 47.24967033 78.375 47.5625 C92.66924563 47.45541137 102.56735303 41.47082314 112.5 31.625 C113.6718037 30.42164774 114.84039808 29.21511478 116 28 C117.97000741 33.91002223 113.52488238 41.48900934 111 47 C102.28990691 63.17047717 88.72739664 74.88810674 71.12109375 80.22265625 C48.95871787 85.74244699 25.10910301 84.19159026 5 73 C-4.6603888 67.00347548 -12.90817645 59.19223083 -20.82080078 51.08837891 C-31.6019432 40.08778898 -42.07587589 32.05887866 -58.1875 31.5625 C-73.84792924 32.20044127 -85.49366791 41.05590407 -96 52 C-95.4650526 46.38671628 -93.98486079 41.95006161 -91.5625 36.875 C-91.20978027 36.13580322 -90.85706055 35.39660645 -90.49365234 34.63500977 C-82.48776086 18.48915684 -70.96067262 7.52333562 -54 1 C-50.36580233 -0.18667679 -46.73796922 -1.19941799 -43 -2 C-41.71609375 -2.27650391 -41.71609375 -2.27650391 -40.40625 -2.55859375 C-27.22383573 -4.26686532 -12.66551229 -4.29076539 0 0 Z " fill="#38BDF8" transform="translate(97,89)"/>
</svg>
