<?xml version="1.0" encoding="UTF-8"?>
<svg version="1.1" xmlns="http://www.w3.org/2000/svg" width="779" height="768">
<path d="M0 0 C2.81692015 4.0973384 2.49349836 7.15174975 2.0625 12 C1.4552436 15.22998789 0.5702193 18.34407022 -0.3684082 21.49194336 C-0.75619949 22.84507378 -0.75619949 22.84507378 -1.15182495 24.22554016 C-2.00265576 27.18371372 -2.87029207 30.13666387 -3.73828125 33.08984375 C-4.33747144 35.16022962 -4.93561439 37.23091882 -5.53276062 39.30189514 C-7.10418168 44.7410244 -8.68998749 50.17585638 -10.27880859 55.60992432 C-11.88684993 61.11952747 -13.4808019 66.63320164 -15.07617188 72.14648438 C-17.41637118 80.22598465 -19.76180652 88.30392969 -22.1184082 96.37866211 C-22.36009232 97.20753937 -22.60177643 98.03641663 -22.8507843 98.89041138 C-24.51949206 104.60174676 -26.22106048 110.30283576 -27.9375 116 C-27.07712678 115.83908686 -27.07712678 115.83908686 -26.19937229 115.67492294 C12.96274896 108.35177507 52.1302179 101.0567275 91.31871986 93.87593842 C99.3648925 92.40128571 107.40997442 90.92108472 115.45288086 89.42871094 C122.64986843 88.09330871 129.84854936 86.76752729 137.04945225 85.45339465 C140.80946833 84.76689316 144.56852068 84.07591726 148.32553291 83.37314606 C151.81335931 82.72087999 155.30332505 82.08162263 158.79532623 81.45210266 C160.6648194 81.11169786 162.53184128 80.75780525 164.39872742 80.40338135 C172.38830247 78.98086373 180.02202235 77.90493751 187.4375 81.75 C191.77948542 85.47170179 195.32462517 89.54045573 196.5390625 95.234375 C197.10401747 104.80887497 192.58903667 111.94944821 188.0625 120 C187.0217659 121.8787016 185.98142415 123.75762058 184.94140625 125.63671875 C182.59119983 129.86443778 180.22303707 134.08155211 177.84375 138.29296875 C174.02687562 145.05069732 170.26087861 151.83599499 166.5 158.625 C161.3692232 167.87621566 156.1913338 177.09906292 150.97412109 186.30175781 C146.17500644 194.77731882 141.4449394 203.29050355 136.72094727 211.80810547 C130.77617618 222.52472941 124.79026111 233.21800966 118.79638672 243.90722656 C115.88310861 249.10370742 112.97293473 254.30192626 110.0625 259.5 C106.57573215 265.72741207 103.08837556 271.95448933 99.59765625 278.1796875 C93.54189914 288.98203312 87.50641126 299.79513013 81.5 310.625 C76.36871402 319.87593606 71.1913365 329.09905816 65.97412109 338.30175781 C61.17500644 346.77731882 56.4449394 355.29050355 51.72094727 363.80810547 C45.77617618 374.52472941 39.79026111 385.21800966 33.79638672 395.90722656 C30.88310861 401.10370742 27.97293473 406.30192626 25.0625 411.5 C21.57573215 417.72741207 18.08837556 423.95448933 14.59765625 430.1796875 C8.54189914 440.98203312 2.50641126 451.79513013 -3.5 462.625 C-8.63128598 471.87593606 -13.8086635 481.09905816 -19.02587891 490.30175781 C-23.82499356 498.77731882 -28.5550606 507.29050355 -33.27905273 515.80810547 C-39.22382382 526.52472941 -45.20973889 537.21800966 -51.20361328 547.90722656 C-54.11689139 553.10370742 -57.02706527 558.30192626 -59.9375 563.5 C-63.42426785 569.72741207 -66.91162444 575.95448933 -70.40234375 582.1796875 C-76.45810086 592.98203312 -82.49358874 603.79513013 -88.5 614.625 C-93.63128598 623.87593606 -98.8086635 633.09905816 -104.02587891 642.30175781 C-108.82499356 650.77731882 -113.5550606 659.29050355 -118.27905273 667.80810547 C-123.07162626 676.44766575 -127.88556521 685.07496848 -132.72045898 693.69091797 C-135.73073401 699.05551931 -138.73112363 704.42526293 -141.71484375 709.8046875 C-142.3380249 710.92536621 -142.96120605 712.04604492 -143.60327148 713.20068359 C-144.78679285 715.32954127 -145.96750421 717.45996473 -147.14477539 719.59228516 C-158.63826778 740.23358926 -158.63826778 740.23358926 -166.9375 743 C-179.2465053 744.09773293 -179.2465053 744.09773293 -184.30957031 740.40942383 C-190.66349426 734.9083436 -194.48059197 726.75282227 -198.4375 719.5 C-203.16804083 710.93661158 -207.97766694 702.43269447 -212.9375 694 C-218.25665448 684.93861507 -223.43622145 675.80805442 -228.55126953 666.63012695 C-232.925016 658.78903143 -237.35237167 650.97969078 -241.8125 643.1875 C-242.14586365 642.60504517 -242.47922729 642.02259033 -242.82269287 641.42248535 C-244.51623714 638.46406468 -246.21057826 635.50610134 -247.90527344 632.54833984 C-250.92118289 627.28378943 -253.93010211 622.015245 -256.93951416 616.74697876 C-258.60521971 613.83115361 -260.27138314 610.91559013 -261.9375 608 C-262.60416886 606.83333459 -263.27083552 605.66666792 -263.9375 604.5 C-264.2675 603.9225 -264.5975 603.345 -264.9375 602.75 C-267.9375 597.5 -267.9375 597.5 -268.93746948 595.75004578 C-269.60422911 594.58322151 -270.2709975 593.41640226 -270.93777466 592.24958801 C-272.60309088 589.33537354 -274.26825537 586.42107258 -275.93310547 583.5065918 C-278.94904606 578.22724336 -281.96612341 572.94856056 -284.98880005 567.67306519 C-286.6807784 564.71996984 -288.37187464 561.76637011 -290.0625 558.8125 C-290.39505798 558.23149536 -290.72761597 557.65049072 -291.07025146 557.05187988 C-295.78419898 548.81214849 -300.44117995 540.54203158 -305.0625 532.25 C-310.15964598 523.10554429 -315.38748746 514.04640908 -320.68798828 505.01855469 C-325.46673087 496.85881504 -330.08926686 488.61791893 -334.6875 480.35546875 C-338.68714452 473.18646305 -342.78098044 466.07907237 -346.9375 459 C-352.31029449 449.84945939 -357.5302244 440.62331625 -362.68969727 431.35107422 C-366.66565635 424.22371733 -370.73913998 417.16060908 -374.875 410.125 C-380.51649163 400.52434496 -385.94962614 390.82047748 -391.32958984 381.07128906 C-396.00993587 372.61248188 -400.83936334 364.2516336 -405.73828125 355.91796875 C-410.50443713 347.79188766 -415.10947811 339.58240211 -419.68994141 331.35058594 C-423.66586053 324.2234156 -427.73923218 317.16045222 -431.875 310.125 C-437.51649163 300.52434496 -442.94962614 290.82047748 -448.32958984 281.07128906 C-453.00993587 272.61248188 -457.83936334 264.2516336 -462.73828125 255.91796875 C-466.89650268 248.82838852 -470.9411613 241.68193905 -474.9375 234.5 C-479.51316642 226.27796975 -484.17337865 218.1142887 -488.9375 210 C-494.25589275 200.93815741 -499.43621109 191.80807301 -504.55126953 182.63012695 C-508.92502241 174.78901995 -513.35327416 166.98021409 -517.8125 159.1875 C-518.14287262 158.60969788 -518.47324524 158.03189575 -518.81362915 157.43658447 C-522.25846298 151.41182347 -525.71009373 145.39106421 -529.17669678 139.37879944 C-530.60955899 136.8925292 -532.03945709 134.40456055 -533.46905518 131.91641235 C-534.45871225 130.1967433 -535.45265275 128.47954147 -536.44677734 126.76245117 C-539.71706575 121.06955292 -542.87429332 115.33129949 -545.859375 109.484375 C-546.43397461 108.35999023 -547.00857422 107.23560547 -547.60058594 106.07714844 C-549.82648177 100.9538484 -549.88790244 97.1544032 -548.30078125 91.88671875 C-545.99983566 86.35820243 -542.10311693 82.91574862 -536.9375 80 C-527.24548218 76.76633406 -514.56793554 80.77498953 -504.82836914 82.5534668 C-503.35706819 82.81716262 -501.88566491 83.08028804 -500.41416931 83.34289551 C-496.43356992 84.05493569 -492.4544395 84.77489171 -488.475528 85.49629569 C-484.21544381 86.26720629 -479.95401157 87.0305962 -475.69273376 87.7948761 C-467.54739893 89.25692604 -459.40325872 90.7255218 -451.25953716 92.19652826 C-442.30287172 93.81409248 -433.34499227 95.42487531 -424.38694882 97.03478789 C-410.25851894 99.57401476 -396.13082366 102.11729503 -382.00375056 104.66405892 C-359.21153516 108.77288896 -336.41668912 112.86699923 -313.62109375 116.95703125 C-311.88188199 117.2691039 -310.14267058 117.58117854 -308.40345955 117.89325523 C-298.91486392 119.5958244 -289.42621508 121.29809669 -279.9375 123 C-279.94032675 122.27183358 -279.9431535 121.54366716 -279.9460659 120.7934351 C-279.95702137 115.96152143 -279.9674356 111.14586704 -279.69384766 106.32006836 C-279.64024078 105.35213852 -279.58663391 104.38420868 -279.53140259 103.38694763 C-279.47205536 102.38140335 -279.41270813 101.37585907 -279.3515625 100.33984375 C-279.28971771 99.26932266 -279.22787292 98.19880157 -279.16415405 97.09584045 C-279.03304067 94.84951792 -278.90017545 92.60329701 -278.765625 90.35717773 C-278.56286137 86.94358381 -278.37107189 83.52948279 -278.1796875 80.11523438 C-278.05015099 77.9192311 -277.91996452 75.72326605 -277.7890625 73.52734375 C-277.73376373 72.51977524 -277.67846497 71.51220673 -277.62149048 70.47410583 C-277.33119948 65.7994155 -276.92049553 61.15851363 -276.19677734 56.52954102 C-276.07684418 55.75183853 -275.95691101 54.97413605 -275.83334351 54.17286682 C-274.55251915 51.06622965 -272.67679015 49.90766397 -269.9375 48 C-267.13963413 47.07953644 -267.13963413 47.07953644 -264.02430725 46.47668457 C-262.83561318 46.23929062 -261.64691912 46.00189667 -260.42220402 45.75730896 C-259.10972526 45.51046849 -257.79719513 45.26390103 -256.48461914 45.01757812 C-255.09060043 44.744907 -253.69683263 44.47095045 -252.303298 44.19581604 C-248.49675994 43.44805637 -244.68694984 42.71837258 -240.8763504 41.99163628 C-236.81258545 41.21329199 -232.75213529 40.4180136 -228.69128418 39.62463379 C-220.843371 38.09402199 -212.99264313 36.57837391 -205.14081919 35.06796694 C-195.2119496 33.15736479 -185.2865205 31.22912359 -175.36108398 29.30078125 C-171.7464425 28.59873108 -168.13176892 27.89684636 -164.51707458 27.19506836 C-163.17683746 26.93485696 -163.17683746 26.93485696 -161.80952483 26.66938877 C-155.48528657 25.44185328 -149.16044113 24.21747805 -142.83534241 22.99438477 C-122.79885302 19.11898461 -102.7706551 15.20586445 -82.75639534 11.21720886 C-79.07143487 10.48298334 -75.38617098 9.75030213 -71.70079041 9.01818848 C-69.3668499 8.55445294 -67.03291126 8.09070803 -64.69897461 7.62695312 C-63.02510508 7.29436367 -63.02510508 7.29436367 -61.31742001 6.95505524 C-55.89218807 5.87629454 -50.46779233 4.7936065 -45.04495239 3.70288086 C-40.0646668 2.70132127 -35.08243606 1.71011577 -30.09846497 0.72706604 C-28.3175883 0.37373645 -26.53749807 0.01641405 -24.75831604 -0.34535217 C-22.37020225 -0.83059628 -19.9797256 -1.30177565 -17.58813477 -1.76953125 C-16.9073842 -1.91151192 -16.22663363 -2.05349258 -15.52525425 -2.1997757 C-9.75878207 -3.3007673 -4.93851928 -3.36239611 0 0 Z " fill="#8C72FE" transform="translate(565.9375,5)"/>
<path d="M0 0 C2.81692015 4.0973384 2.49349836 7.15174975 2.0625 12 C1.4552436 15.22998789 0.5702193 18.34407022 -0.3684082 21.49194336 C-0.75619949 22.84507378 -0.75619949 22.84507378 -1.15182495 24.22554016 C-2.00265576 27.18371372 -2.87029207 30.13666387 -3.73828125 33.08984375 C-4.33747144 35.16022962 -4.93561439 37.23091882 -5.53276062 39.30189514 C-7.10418168 44.7410244 -8.68998749 50.17585638 -10.27880859 55.60992432 C-11.88684993 61.11952747 -13.4808019 66.63320164 -15.07617188 72.14648438 C-17.41637118 80.22598465 -19.76180652 88.30392969 -22.1184082 96.37866211 C-22.36009232 97.20753937 -22.60177643 98.03641663 -22.8507843 98.89041138 C-23.54345139 101.2611405 -24.23934992 103.63087994 -24.9375 106 C-25.19776663 106.8838846 -25.45803326 107.7677692 -25.72618675 108.67843819 C-26.11861281 110.00055463 -26.11861281 110.00055463 -26.51896667 111.34938049 C-26.87209065 112.54118848 -26.87209065 112.54118848 -27.23234844 113.7570734 C-27.90068584 115.88290255 -28.64771416 117.95400822 -29.453125 120.03125 C-31.1520152 124.44395182 -32.42207683 128.94709469 -33.6875 133.5 C-34.20766242 135.34654329 -34.72852533 137.19288937 -35.25 139.0390625 C-35.52199219 140.00360352 -35.79398438 140.96814453 -36.07421875 141.96191406 C-37.58379853 147.27447368 -39.1364693 152.57442191 -40.6875 157.875 C-41.53109582 160.75859755 -42.37456245 163.64221909 -43.21459961 166.52685547 C-43.66081629 168.05342587 -44.11126688 169.5787748 -44.56860352 171.10205078 C-45.95399056 175.77051327 -46.48429834 179.15692901 -45.9375 184 C-44.25116812 187.26977606 -44.25116812 187.26977606 -40.9375 189 C-33.60616539 189.16693105 -26.02572687 187.19571202 -18.859375 185.8203125 C-17.73033752 185.60688202 -16.60130005 185.39345154 -15.43804932 185.17355347 C-13.06101785 184.72335407 -10.68437459 184.27110057 -8.30810547 183.81689453 C-4.71277298 183.12982965 -1.11628354 182.4491201 2.48046875 181.76953125 C17.91782323 178.8584541 17.91782323 178.8584541 33.25683594 175.47607422 C38.36802893 174.60879034 41.92741636 174.36022558 46.5 176.9375 C49.56368358 180.59897549 49.54242341 181.98084052 49.39803767 186.54034162 C48.81326581 190.82701087 46.99694295 194.34163972 45.0296936 198.15463257 C44.59572561 199.03096395 44.16175761 199.90729533 43.71463907 200.81018221 C42.2624251 203.73171504 40.78493174 206.63967766 39.30712891 209.54833984 C38.2577872 211.64612115 37.21002646 213.74469391 36.16372681 215.84399414 C33.319792 221.53871632 30.45371956 227.22203342 27.58347368 232.90352964 C24.88051738 238.26212197 22.19400371 243.62893307 19.50726156 248.9956661 C14.17547806 259.64442161 8.8273979 270.28490509 3.46923828 280.92041016 C-1.71002408 291.20089425 -6.88078411 301.48558353 -12.04052734 311.77587891 C-12.35746883 312.40796278 -12.67441032 313.04004665 -13.0009561 313.69128458 C-14.27557256 316.23335779 -15.5501403 318.77545542 -16.82464071 321.3175868 C-26.64072651 340.89639546 -36.46490135 360.4711972 -46.31506729 380.03288269 C-47.34026724 382.06933591 -48.36490616 384.10607168 -49.38890076 386.14313126 C-54.18903035 395.69066298 -59.02255968 405.21465388 -64.02377319 414.65866089 C-69.03935421 424.13133108 -73.83951674 433.70403129 -78.60644531 443.30371094 C-79.52406882 445.14745506 -80.44191214 446.9910898 -81.35995483 448.83462524 C-83.31428337 452.75981714 -85.26746613 456.68557616 -87.21982574 460.61174774 C-90.31023879 466.82554602 -93.40565661 473.03684268 -96.50213623 479.24761963 C-97.56741768 481.38444111 -98.63269859 483.52126286 -99.69797897 485.65808487 C-100.23079153 486.7268261 -100.76360408 487.79556733 -101.31256247 488.89669466 C-108.50568352 503.32578849 -115.69500422 517.75675792 -122.87304688 532.19335938 C-127.73810014 541.97793924 -132.61025646 551.75894582 -137.4905746 561.53592134 C-140.06588119 566.6958923 -142.63750083 571.85762767 -145.20035553 577.02379608 C-147.6050039 581.87096224 -150.01894666 586.71338309 -152.44005203 591.55234909 C-153.32474809 593.32470718 -154.206024 595.09877738 -155.08356094 596.87469101 C-156.28467544 599.3041633 -157.49809786 601.72709989 -158.71466064 604.14886475 C-159.05611154 604.84701286 -159.39756243 605.54516098 -159.74936032 606.26446509 C-162.33642736 611.36609587 -165.66154726 617.36202363 -170.9375 620 C-174.92081824 620.54317976 -176.73422586 620.10916574 -180.3125 618.1875 C-182.296477 616.3483688 -182.88310096 615.38236351 -183.26739597 612.68120575 C-183.17694564 605.79302349 -182.29529145 599.38461299 -180.84545898 592.65820312 C-180.62261734 591.58140289 -180.3997757 590.50460266 -180.17018127 589.39517212 C-179.43492361 585.85496681 -178.68429558 582.31820956 -177.93359375 578.78125 C-177.41127911 576.28027823 -176.88998163 573.77909384 -176.36964417 571.27770996 C-175.13577063 565.35756314 -173.89240372 559.43949126 -172.64411074 553.52237463 C-171.11551589 546.27451558 -169.59936312 539.02406951 -168.08398438 531.7734375 C-167.5448315 529.19392454 -167.00565724 526.61441604 -166.46646118 524.03491211 C-166.20248158 522.77202362 -165.93850197 521.50913513 -165.66652298 520.20797729 C-164.87567419 516.42814205 -164.0828853 512.64871822 -163.28964233 508.86938477 C-160.08911614 493.60776605 -156.94868571 478.33627963 -153.96885681 463.02990723 C-152.83705348 457.26166903 -151.61520838 451.63144159 -149.9375 446 C-149.52220204 441.98545306 -149.5990264 439.72310269 -151.3125 436.0625 C-155.29228058 432.93552954 -159.02859354 433.5378199 -163.9375 434 C-167.67112183 434.79522451 -171.25266074 435.9279206 -174.875 437.125 C-175.86556396 437.43832275 -176.85612793 437.75164551 -177.87670898 438.07446289 C-181.84267645 439.33259907 -185.79649276 440.62672707 -189.75097656 441.92041016 C-191.5115768 442.49568421 -193.27301964 443.06838757 -195.03540039 443.63818359 C-196.63396219 444.15662751 -198.22973339 444.6837879 -199.82202148 445.22119141 C-203.97088008 446.575826 -207.51536638 447.46308479 -211.9375 447 C-214.63740662 445.20006226 -216.4793865 443.916227 -217.9375 441 C-218.50515978 433.22806971 -216.88458027 426.04920027 -215.20315552 418.50518799 C-214.28404196 414.37409972 -213.39949448 410.23557204 -212.51171875 406.09765625 C-212.3141246 405.17950134 -212.11653046 404.26134644 -211.91294861 403.31536865 C-209.26755297 390.96430274 -206.79193223 378.5783616 -204.31433105 366.19277954 C-203.77338129 363.48862334 -203.23063424 360.78483857 -202.68615723 358.08139038 C-201.91354999 354.24506721 -201.14588321 350.40776555 -200.37890625 346.5703125 C-200.14694046 345.41965805 -199.91497467 344.2690036 -199.67597961 343.08348083 C-196.85730265 332.77074924 -196.85730265 332.77074924 -198.75 323.0625 C-200.7604735 320.96842963 -200.7604735 320.96842963 -202.9375 320 C-208.86696849 320.17757024 -214.68481799 321.48462067 -220.43359375 322.85546875 C-221.21677475 323.03782074 -221.99995575 323.22017273 -222.80686951 323.40805054 C-224.47242759 323.79653442 -226.13744325 324.1873503 -227.80194092 324.58035278 C-230.40660449 325.1949575 -233.01286323 325.80233668 -235.61962891 326.40795898 C-243.40828462 328.22014013 -251.19073469 330.05609635 -258.96484375 331.9296875 C-260.72453491 332.34891479 -260.72453491 332.34891479 -262.51977539 332.77661133 C-264.64219796 333.283179 -266.76267125 333.79802029 -268.88061523 334.32299805 C-281.31989228 337.28291134 -281.31989228 337.28291134 -285.9375 336 C-288.74703888 334.01308969 -290.63467928 332.45966033 -291.35617065 328.98191833 C-291.48637945 326.45443591 -291.43923074 323.98198152 -291.3359375 321.453125 C-291.31574554 320.49432434 -291.29555359 319.53552368 -291.27474976 318.54766846 C-291.19516319 315.36312633 -291.07151946 312.18269645 -290.9375 309 C-290.89435669 307.90131592 -290.85121338 306.80263184 -290.8067627 305.6706543 C-290.51870134 298.58215076 -290.15888391 291.49891444 -289.765625 284.41552734 C-289.56351049 280.76823505 -289.37088129 277.12053566 -289.1796875 273.47265625 C-288.56521176 261.9693061 -287.85237642 250.48288608 -286.9296875 239 C-285.91347878 226.33352474 -285.23707641 213.65945736 -284.61886597 200.9680481 C-284.30756763 194.58635365 -283.98477928 188.20524766 -283.66015625 181.82421875 C-283.5975209 180.59267563 -283.53488556 179.36113251 -283.47035217 178.0922699 C-283.02317828 169.40845217 -282.49812828 160.73541551 -281.875 152.0625 C-281.03073389 140.27824055 -280.46657806 128.4891827 -279.9375 116.6875 C-279.36389645 103.97208577 -278.79023882 91.25717651 -278.05810547 78.54971313 C-277.97908998 77.16588245 -277.90250227 75.78191051 -277.82861328 74.39779663 C-276.71355604 53.65265775 -276.71355604 53.65265775 -272.75141048 49.96579742 C-269.71777328 47.84649895 -267.63458767 47.17531568 -264.02430725 46.47668457 C-262.83561318 46.23929062 -261.64691912 46.00189667 -260.42220402 45.75730896 C-259.10972526 45.51046849 -257.79719513 45.26390103 -256.48461914 45.01757812 C-255.09060043 44.744907 -253.69683263 44.47095045 -252.303298 44.19581604 C-248.49675994 43.44805637 -244.68694984 42.71837258 -240.8763504 41.99163628 C-236.81258545 41.21329199 -232.75213529 40.4180136 -228.69128418 39.62463379 C-220.843371 38.09402199 -212.99264313 36.57837391 -205.14081919 35.06796694 C-195.2119496 33.15736479 -185.2865205 31.22912359 -175.36108398 29.30078125 C-171.7464425 28.59873108 -168.13176892 27.89684636 -164.51707458 27.19506836 C-163.62358317 27.0215941 -162.73009175 26.84811983 -161.80952483 26.66938877 C-155.48528657 25.44185328 -149.16044113 24.21747805 -142.83534241 22.99438477 C-122.79885302 19.11898461 -102.7706551 15.20586445 -82.75639534 11.21720886 C-79.07143487 10.48298334 -75.38617098 9.75030213 -71.70079041 9.01818848 C-69.3668499 8.55445294 -67.03291126 8.09070803 -64.69897461 7.62695312 C-63.58306159 7.40522682 -62.46714857 7.18350052 -61.31742001 6.95505524 C-55.89218807 5.87629454 -50.46779233 4.7936065 -45.04495239 3.70288086 C-40.0646668 2.70132127 -35.08243606 1.71011577 -30.09846497 0.72706604 C-28.3175883 0.37373645 -26.53749807 0.01641405 -24.75831604 -0.34535217 C-22.37020225 -0.83059628 -19.9797256 -1.30177565 -17.58813477 -1.76953125 C-16.9073842 -1.91151192 -16.22663363 -2.05349258 -15.52525425 -2.1997757 C-9.75878207 -3.3007673 -4.93851928 -3.36239611 0 0 Z " fill="#FEC923" transform="translate(565.9375,5)"/>
</svg>
